# xmcd CD database file
#
# Track frame offsets:
#	150
#	13983
#	32344
#	49451
#	61696
#	79313
#	85792
#	97707
#	111852
#	118769
#	135743
#	147908
#	170125
#
# Disc length: 2466 seconds
#
# Revision: 0
# Processed by: cddbd v1.5.2PL0 Copyright (c) Steve Scherf et al.
# Submitted via: CDex 2.02
#
DISCID=ac09a00d
DTITLE=Reverend Gary Davis - Wire Recordings 1952
DYEAR=1952
DGENRE=Blues
TTITLE0=I am the True Vine
TTITLE1=I Can't Make the Journey by Myself
TTITLE2=Jesus Met the Woman by the Well
TTITLE3=Please Don't Drive Your Children Away
TTITLE4=I'm Gonna Meet You at the Station
TTITLE5=Instrumental (Cocaine)
TTITLE6=Children Go Where I Send Thee
TTITLE7=I Got to Walk that Lonesome Valley
TTITLE8=I See the Sign of Judgement
TTITLE9=Bad Company Brought Me Here
TTITLE10=Tell Me, John
TTITLE11=Tessie
TTITLE12=Twelve Gates to the City
EXTD=YEAR: 1952
EXTT0=
EXTT1=
EXTT2=
EXTT3=
EXTT4=
EXTT5=
EXTT6=
EXTT7=
EXTT8=
EXTT9=
EXTT10=
EXTT11=
EXTT12=
PLAYORDER=
